<?xml version="1.0" encoding="us-ascii" standalone="no"?><svg xmlns="http://www.w3.org/2000/svg" xmlns:xlink="http://www.w3.org/1999/xlink" contentStyleType="text/css" height="290px" preserveAspectRatio="none" style="width:828px;height:290px;background:#FFFFFF;" version="1.1" viewBox="0 0 828 290" width="828px" zoomAndPan="magnify"><defs/><g><rect fill="#FF0000" height="232.8516" style="stroke:none;stroke-width:1.0;" width="4" x="32" y="27"/><rect fill="#FA8072" height="232.8516" style="stroke:none;stroke-width:1.0;" width="52" x="200" y="27"/><rect fill="#FA8072" height="232.8516" style="stroke:none;stroke-width:1.0;" width="28" x="472" y="27"/><text fill="#000000" font-family="sans-serif" font-size="10" lengthAdjust="spacing" textLength="12" x="5" y="25.2822">41</text><text fill="#000000" font-family="sans-serif" font-size="10" lengthAdjust="spacing" textLength="12" x="33" y="25.2822">42</text><text fill="#000000" font-family="sans-serif" font-size="10" lengthAdjust="spacing" textLength="12" x="61" y="25.2822">43</text><text fill="#000000" font-family="sans-serif" font-size="10" lengthAdjust="spacing" textLength="12" x="89" y="25.2822">44</text><text fill="#000000" font-family="sans-serif" font-size="10" lengthAdjust="spacing" textLength="12" x="117" y="25.2822">45</text><text fill="#000000" font-family="sans-serif" font-size="10" lengthAdjust="spacing" textLength="12" x="145" y="25.2822">46</text><text fill="#000000" font-family="sans-serif" font-size="10" lengthAdjust="spacing" textLength="12" x="173" y="25.2822">47</text><text fill="#000000" font-family="sans-serif" font-size="10" lengthAdjust="spacing" textLength="12" x="201" y="25.2822">48</text><text fill="#000000" font-family="sans-serif" font-size="10" lengthAdjust="spacing" textLength="12" x="229" y="25.2822">49</text><text fill="#000000" font-family="sans-serif" font-size="10" lengthAdjust="spacing" textLength="12" x="257" y="25.2822">50</text><text fill="#000000" font-family="sans-serif" font-size="10" lengthAdjust="spacing" textLength="12" x="285" y="25.2822">51</text><text fill="#000000" font-family="sans-serif" font-size="10" lengthAdjust="spacing" textLength="12" x="313" y="25.2822">52</text><text fill="#000000" font-family="sans-serif" font-size="10" lengthAdjust="spacing" textLength="6" x="341" y="25.2822">1</text><text fill="#000000" font-family="sans-serif" font-size="10" lengthAdjust="spacing" textLength="6" x="369" y="25.2822">2</text><text fill="#000000" font-family="sans-serif" font-size="10" lengthAdjust="spacing" textLength="6" x="397" y="25.2822">3</text><text fill="#000000" font-family="sans-serif" font-size="10" lengthAdjust="spacing" textLength="6" x="425" y="25.2822">4</text><text fill="#000000" font-family="sans-serif" font-size="10" lengthAdjust="spacing" textLength="6" x="453" y="25.2822">5</text><text fill="#000000" font-family="sans-serif" font-size="10" lengthAdjust="spacing" textLength="6" x="481" y="25.2822">6</text><text fill="#000000" font-family="sans-serif" font-size="10" lengthAdjust="spacing" textLength="6" x="509" y="25.2822">7</text><text fill="#000000" font-family="sans-serif" font-size="10" lengthAdjust="spacing" textLength="6" x="537" y="25.2822">8</text><text fill="#000000" font-family="sans-serif" font-size="10" lengthAdjust="spacing" textLength="6" x="565" y="25.2822">9</text><text fill="#000000" font-family="sans-serif" font-size="10" lengthAdjust="spacing" textLength="12" x="593" y="25.2822">10</text><text fill="#000000" font-family="sans-serif" font-size="10" lengthAdjust="spacing" textLength="12" x="621" y="25.2822">11</text><text fill="#000000" font-family="sans-serif" font-size="10" lengthAdjust="spacing" textLength="12" x="649" y="25.2822">12</text><text fill="#000000" font-family="sans-serif" font-size="10" lengthAdjust="spacing" textLength="12" x="677" y="25.2822">13</text><line style="stroke:#C0C0C0;stroke-width:1.0;" x1="0" x2="0" y1="16" y2="259.8516"/><line style="stroke:#C0C0C0;stroke-width:1.0;" x1="28" x2="28" y1="16" y2="259.8516"/><line style="stroke:#C0C0C0;stroke-width:1.0;" x1="56" x2="56" y1="16" y2="259.8516"/><line style="stroke:#C0C0C0;stroke-width:1.0;" x1="84" x2="84" y1="16" y2="259.8516"/><line style="stroke:#C0C0C0;stroke-width:1.0;" x1="112" x2="112" y1="16" y2="259.8516"/><line style="stroke:#C0C0C0;stroke-width:1.0;" x1="140" x2="140" y1="16" y2="259.8516"/><line style="stroke:#C0C0C0;stroke-width:1.0;" x1="168" x2="168" y1="16" y2="259.8516"/><line style="stroke:#C0C0C0;stroke-width:1.0;" x1="196" x2="196" y1="16" y2="259.8516"/><line style="stroke:#C0C0C0;stroke-width:1.0;" x1="224" x2="224" y1="16" y2="259.8516"/><line style="stroke:#C0C0C0;stroke-width:1.0;" x1="252" x2="252" y1="16" y2="259.8516"/><line style="stroke:#C0C0C0;stroke-width:1.0;" x1="280" x2="280" y1="16" y2="259.8516"/><line style="stroke:#C0C0C0;stroke-width:1.0;" x1="308" x2="308" y1="16" y2="259.8516"/><line style="stroke:#C0C0C0;stroke-width:1.0;" x1="336" x2="336" y1="16" y2="259.8516"/><line style="stroke:#C0C0C0;stroke-width:1.0;" x1="364" x2="364" y1="16" y2="259.8516"/><line style="stroke:#C0C0C0;stroke-width:1.0;" x1="392" x2="392" y1="16" y2="259.8516"/><line style="stroke:#C0C0C0;stroke-width:1.0;" x1="420" x2="420" y1="16" y2="259.8516"/><line style="stroke:#C0C0C0;stroke-width:1.0;" x1="448" x2="448" y1="16" y2="259.8516"/><line style="stroke:#C0C0C0;stroke-width:1.0;" x1="476" x2="476" y1="16" y2="259.8516"/><line style="stroke:#C0C0C0;stroke-width:1.0;" x1="504" x2="504" y1="16" y2="259.8516"/><line style="stroke:#C0C0C0;stroke-width:1.0;" x1="532" x2="532" y1="16" y2="259.8516"/><line style="stroke:#C0C0C0;stroke-width:1.0;" x1="560" x2="560" y1="16" y2="259.8516"/><line style="stroke:#C0C0C0;stroke-width:1.0;" x1="588" x2="588" y1="16" y2="259.8516"/><line style="stroke:#C0C0C0;stroke-width:1.0;" x1="616" x2="616" y1="16" y2="259.8516"/><line style="stroke:#C0C0C0;stroke-width:1.0;" x1="644" x2="644" y1="16" y2="259.8516"/><line style="stroke:#C0C0C0;stroke-width:1.0;" x1="672" x2="672" y1="16" y2="259.8516"/><line style="stroke:#C0C0C0;stroke-width:1.0;" x1="692" x2="692" y1="16" y2="259.8516"/><line style="stroke:#C0C0C0;stroke-width:1.0;" x1="0" x2="0" y1="0" y2="16"/><line style="stroke:#C0C0C0;stroke-width:1.0;" x1="104" x2="104" y1="0" y2="16"/><text fill="#000000" font-family="sans-serif" font-size="12" font-weight="bold" lengthAdjust="spacing" textLength="60" x="22" y="11.1387">Oct 2025</text><line style="stroke:#C0C0C0;stroke-width:1.0;" x1="224" x2="224" y1="0" y2="16"/><text fill="#000000" font-family="sans-serif" font-size="12" font-weight="bold" lengthAdjust="spacing" textLength="62" x="133" y="11.1387">Nov 2025</text><line style="stroke:#C0C0C0;stroke-width:1.0;" x1="348" x2="348" y1="0" y2="16"/><text fill="#000000" font-family="sans-serif" font-size="12" font-weight="bold" lengthAdjust="spacing" textLength="62" x="255" y="11.1387">Dec 2025</text><line style="stroke:#C0C0C0;stroke-width:1.0;" x1="472" x2="472" y1="0" y2="16"/><text fill="#000000" font-family="sans-serif" font-size="12" font-weight="bold" lengthAdjust="spacing" textLength="58" x="381" y="11.1387">Jan 2026</text><line style="stroke:#C0C0C0;stroke-width:1.0;" x1="584" x2="584" y1="0" y2="16"/><text fill="#000000" font-family="sans-serif" font-size="12" font-weight="bold" lengthAdjust="spacing" textLength="62" x="497" y="11.1387">Feb 2026</text><line style="stroke:#C0C0C0;stroke-width:1.0;" x1="692" x2="692" y1="0" y2="16"/><text fill="#000000" font-family="sans-serif" font-size="12" font-weight="bold" lengthAdjust="spacing" textLength="63" x="606.5" y="11.1387">Mar 2026</text><line style="stroke:#C0C0C0;stroke-width:1.0;" x1="0" x2="692" y1="0" y2="0"/><line style="stroke:#C0C0C0;stroke-width:1.0;" x1="0" x2="692" y1="16" y2="16"/><line style="stroke:#C0C0C0;stroke-width:1.0;" x1="0" x2="692" y1="27" y2="27"/><line style="stroke:#181818;stroke-width:1.5;" x1="-5" x2="-5" y1="74.6094" y2="85.0117"/><line style="stroke:#181818;stroke-width:1.5;" x1="-5" x2="3" y1="85.0117" y2="85.0117"/><polygon fill="#181818" points="-1,81.0117,-1,85.0117,-1,89.0117,3,85.0117" style="stroke:#181818;stroke-width:1.5;"/><line style="stroke:#181818;stroke-width:1.5;" x1="667" x2="667" y1="224.2422" y2="234.6445"/><line style="stroke:#181818;stroke-width:1.5;" x1="667" x2="675" y1="234.6445" y2="234.6445"/><polygon fill="#181818" points="671,230.6445,671,234.6445,671,238.6445,675,234.6445" style="stroke:#181818;stroke-width:1.5;"/><line style="stroke:#181818;stroke-width:1.0;" x1="0" x2="5" y1="43.4023" y2="43.4023"/><line style="stroke:#181818;stroke-width:1.0;" x1="65" x2="691" y1="43.4023" y2="43.4023"/><rect fill="#E2E2F0" height="12.8047" style="stroke:none;stroke-width:1.0;" width="1" x="2" y="61.8047"/><line style="stroke:#181818;stroke-width:1.0;" x1="2" x2="3" y1="61.8047" y2="61.8047"/><line style="stroke:#181818;stroke-width:1.0;" x1="2" x2="3" y1="74.6094" y2="74.6094"/><line style="stroke:#181818;stroke-width:1.0;" x1="2" x2="2" y1="61.8047" y2="74.6094"/><line style="stroke:#181818;stroke-width:1.0;" x1="3" x2="3" y1="61.8047" y2="74.6094"/><rect fill="#E2E2F0" height="12.8047" style="stroke:none;stroke-width:1.0;" width="16" x="6" y="78.6094"/><line style="stroke:#181818;stroke-width:1.0;" x1="6" x2="22" y1="78.6094" y2="78.6094"/><line style="stroke:#181818;stroke-width:1.0;" x1="6" x2="22" y1="91.4141" y2="91.4141"/><line style="stroke:#181818;stroke-width:1.0;" x1="6" x2="6" y1="78.6094" y2="91.4141"/><line style="stroke:#181818;stroke-width:1.0;" x1="22" x2="22" y1="78.6094" y2="91.4141"/><polygon fill="#000000" points="322,95.4141,327,100.4141,322,105.4141,317,100.4141" style="stroke:#000000;stroke-width:1.0;"/><line style="stroke:#181818;stroke-width:1.0;" x1="0" x2="5" y1="126.6211" y2="126.6211"/><line style="stroke:#181818;stroke-width:1.0;" x1="48" x2="691" y1="126.6211" y2="126.6211"/><rect fill="#E2E2F0" height="12.8047" style="stroke:none;stroke-width:1.0;" width="16" x="558" y="145.0234"/><line style="stroke:#181818;stroke-width:1.0;" x1="558" x2="574" y1="145.0234" y2="145.0234"/><line style="stroke:#181818;stroke-width:1.0;" x1="558" x2="574" y1="157.8281" y2="157.8281"/><line style="stroke:#181818;stroke-width:1.0;" x1="558" x2="558" y1="145.0234" y2="157.8281"/><line style="stroke:#181818;stroke-width:1.0;" x1="574" x2="574" y1="145.0234" y2="157.8281"/><polygon fill="#000000" points="578,161.8281,583,166.8281,578,171.8281,573,166.8281" style="stroke:#000000;stroke-width:1.0;"/><line style="stroke:#181818;stroke-width:1.0;" x1="0" x2="5" y1="193.0352" y2="193.0352"/><line style="stroke:#181818;stroke-width:1.0;" x1="86" x2="691" y1="193.0352" y2="193.0352"/><rect fill="#E2E2F0" height="12.8047" style="stroke:none;stroke-width:1.0;" width="92" x="582" y="211.4375"/><line style="stroke:#181818;stroke-width:1.0;" x1="582" x2="674" y1="211.4375" y2="211.4375"/><line style="stroke:#181818;stroke-width:1.0;" x1="582" x2="674" y1="224.2422" y2="224.2422"/><line style="stroke:#181818;stroke-width:1.0;" x1="582" x2="582" y1="211.4375" y2="224.2422"/><line style="stroke:#181818;stroke-width:1.0;" x1="674" x2="674" y1="211.4375" y2="224.2422"/><rect fill="#E2E2F0" height="12.8047" style="stroke:none;stroke-width:1.0;" width="12" x="678" y="228.2422"/><line style="stroke:#181818;stroke-width:1.0;" x1="678" x2="690" y1="228.2422" y2="228.2422"/><line style="stroke:#181818;stroke-width:1.0;" x1="678" x2="690" y1="241.0469" y2="241.0469"/><line style="stroke:#181818;stroke-width:1.0;" x1="678" x2="678" y1="228.2422" y2="241.0469"/><line style="stroke:#181818;stroke-width:1.0;" x1="690" x2="690" y1="228.2422" y2="241.0469"/><polygon fill="#000000" points="690,245.0469,695,250.0469,690,255.0469,685,250.0469" style="stroke:#000000;stroke-width:1.0;"/><text fill="#000000" font-family="sans-serif" font-size="11" lengthAdjust="spacing" textLength="50" x="10" y="47.2104">Proposal</text><text fill="#000000" font-family="sans-serif" font-size="11" lengthAdjust="spacing" textLength="41" x="6" y="72.0151">Kick off</text><text fill="#000000" font-family="sans-serif" font-size="11" lengthAdjust="spacing" textLength="48" x="26" y="88.8198">Einlesen</text><text fill="#000000" font-family="sans-serif" font-size="11" lengthAdjust="spacing" textLength="175" x="330" y="105.6245">Letzter Abgabetermin Proposal</text><text fill="#000000" font-family="sans-serif" font-size="11" lengthAdjust="spacing" textLength="33" x="10" y="130.4292">Arbeit</text><text fill="#000000" font-family="sans-serif" font-size="11" lengthAdjust="spacing" textLength="102" x="578" y="155.2339">Finalisieren Arbeit</text><text fill="#000000" font-family="sans-serif" font-size="11" lengthAdjust="spacing" textLength="118" x="586" y="172.0386">Abgabe Masterarbeit</text><text fill="#000000" font-family="sans-serif" font-size="11" lengthAdjust="spacing" textLength="71" x="10" y="196.8433">Verteidigung</text><text fill="#000000" font-family="sans-serif" font-size="11" lengthAdjust="spacing" textLength="148" x="678" y="221.6479">Vorbereitung Verteidigung</text><text fill="#000000" font-family="sans-serif" font-size="11" lengthAdjust="spacing" textLength="114" x="694" y="238.4526">Verteidigungswoche</text><text fill="#000000" font-family="sans-serif" font-size="11" lengthAdjust="spacing" textLength="107" x="698" y="255.2573">Verteidigung durch</text><line style="stroke:#C0C0C0;stroke-width:1.0;" x1="0" x2="692" y1="259.8516" y2="259.8516"/><line style="stroke:#C0C0C0;stroke-width:1.0;" x1="0" x2="0" y1="259.8516" y2="275.8516"/><line style="stroke:#C0C0C0;stroke-width:1.0;" x1="104" x2="104" y1="259.8516" y2="275.8516"/><text fill="#000000" font-family="sans-serif" font-size="12" font-weight="bold" lengthAdjust="spacing" textLength="60" x="22" y="270.9902">Oct 2025</text><line style="stroke:#C0C0C0;stroke-width:1.0;" x1="224" x2="224" y1="259.8516" y2="275.8516"/><text fill="#000000" font-family="sans-serif" font-size="12" font-weight="bold" lengthAdjust="spacing" textLength="62" x="133" y="270.9902">Nov 2025</text><line style="stroke:#C0C0C0;stroke-width:1.0;" x1="348" x2="348" y1="259.8516" y2="275.8516"/><text fill="#000000" font-family="sans-serif" font-size="12" font-weight="bold" lengthAdjust="spacing" textLength="62" x="255" y="270.9902">Dec 2025</text><line style="stroke:#C0C0C0;stroke-width:1.0;" x1="472" x2="472" y1="259.8516" y2="275.8516"/><text fill="#000000" font-family="sans-serif" font-size="12" font-weight="bold" lengthAdjust="spacing" textLength="58" x="381" y="270.9902">Jan 2026</text><line style="stroke:#C0C0C0;stroke-width:1.0;" x1="584" x2="584" y1="259.8516" y2="275.8516"/><text fill="#000000" font-family="sans-serif" font-size="12" font-weight="bold" lengthAdjust="spacing" textLength="62" x="497" y="270.9902">Feb 2026</text><line style="stroke:#C0C0C0;stroke-width:1.0;" x1="692" x2="692" y1="259.8516" y2="275.8516"/><text fill="#000000" font-family="sans-serif" font-size="12" font-weight="bold" lengthAdjust="spacing" textLength="63" x="606.5" y="270.9902">Mar 2026</text><line style="stroke:#C0C0C0;stroke-width:1.0;" x1="0" x2="692" y1="275.8516" y2="275.8516"/><text fill="#888888" font-family="sans-serif" font-size="10" lengthAdjust="spacing" textLength="153" x="269" y="285.1338">Printdate: 2025-10-14 (red line)</text><!--SRC=[xLF1Kjim4BtlL-mmqo4vYB5D0anEK4ZQqcJ8D24pr9E3OcyS5KTA9JaC_VgkRG99eRINzeGlabTltxvTwPqwBwtFfFOUlvBogrng74ZdoKexum3iuwWxlXx2oYhjNI9pmZkYs_mUl4dbFIg7YScDfHILHbvWQCqtIZnMr0wZ86gBC1314S3S66R6OScLIayTV5SkZRqR_iHW8D9qhucDaYnNcfg0NF_ZLV_JnTdD26gcK4HjzEQ1DnB1CKfBgEMIi-8UMKLw-ZfsIx2J-T9eAF578c14-82l_tQuHxSgbndPwUlev-o_XPV3ourZC80GF1UpCfo3Ga3yMIMtQERpAG_rUw4iEGoH9-u0_88qnbsbStBSx1EWNGFYFlaVvQ3FPfcS4U-MB6R3FiM5NAr8kyUnH6sewfzLLrvM1zYFnrKQuP934vahlYdkIsFvHbwgkX-VcvJG9GjBQlOoek9HP0kTFJy6Y7jACy8nWWlLSgQRXoJzu-YY2ALEdnF4TSCxBtYdtJhxkEfsGjOJgybOJ3NnYU44rkxBmFRfYn9EAWcaqwtmeOWE7svdEz_TcMH1qnhyY3o67H2cXKqMlwgjS73AcPL9UVj7n_uZfsvEmzQkGTzS-HzT-MQHlx38a2tXhmTzN9DrocWC3nZPEZXiZ1S5zcY6OPjpEwsW4xJnl3ikYLfDQ7mOzjSHEiDL25Fbl5MpmZD34oxbMkANGdkrP2zSSVdBYy-R07RrMbcZbwGzN4u6Ju2ZbdZFTpSYorfmCe0BciiYzvoHc5Jfh8FNuvuuWRxKMS7FkCCJW7F3lFQUpqO_0G00]--></g></svg>